# xmcd
#
# Track frame offsets: 
#        182
#        15070
#        29020
#        44307
#        56957
#        74295
#        97645
#        115707
#        129445
#        145195
#        163982
#        178232
#
# Disc length: 2627 seconds
#
# Revision: 1
# Processed by: cddbd v1.5.2PL0 Copyright (c) Steve Scherf et al.
# Submitted via: ExactAudioCopy v0.99pb5
#
DISCID=9f0a410c
DTITLE=Hot Dogs - Riesengaudi
DYEAR=1987
DGENRE=Jazz
TTITLE0=Valencia
TTITLE1=Hedwig, i mog ned nach Venedig
TTITLE2=Alle fahr'n Ski
TTITLE3=Das Wahnsinnshaus
TTITLE4=I geh' in Biergarten
TTITLE5=Das schönste von Aerobic ist der Durst
TTITLE6=Mia san die Indianer von Deutschland (Wupa-Wupa)
TTITLE7=I bin der Schubi-Duba-Dieter
TTITLE8=Du bist verrückt, mein Kind
TTITLE9=Der Wüstensand
TTITLE10=Münchner Schäfferltanz
TTITLE11=Hey-Ba-Ba-Re-Bop
EXTD=
EXTT0=
EXTT1=
EXTT2=
EXTT3=
EXTT4=
EXTT5=
EXTT6=
EXTT7=
EXTT8=
EXTT9=
EXTT10=
EXTT11=
PLAYORDER=
